<svg xmlns="http://www.w3.org/2000/svg" width="80" height="35" fill="none"><path fill="#1D1A1D" d="M24.296 4.706c.444 0 .835.293.958.719.322 1.117.666 2.351 1.031 3.703.477 1.616.97 3.296 1.479 5.039l1.622 5.23c.232.748.461 1.473.688 2.175.288.896 1.52.909 1.819.016.249-.743.494-1.506.736-2.287a321.531 321.531 0 0 0 1.575-5.23c.509-1.742.97-3.422 1.383-5.038l.99-3.593a1 1 0 0 1 .964-.734h4.835c.444 0 .835.293.958.72.322 1.116.666 2.35 1.03 3.702.478 1.616.97 3.296 1.48 5.039l1.621 5.23c.221.71.44 1.4.654 2.07a.963.963 0 0 0 1.841 0 205.2 205.2 0 0 0 .654-2.07l1.622-5.23c.509-1.743 1.002-3.423 1.479-5.04.365-1.35.709-2.585 1.031-3.702a.996.996 0 0 1 .958-.719h4.834a1 1 0 0 1 .965.734l.99 3.592c.413 1.617.874 3.297 1.383 5.04A326.48 326.48 0 0 0 65.45 19.3c.212.684.427 1.353.644 2.007a.939.939 0 0 0 1.814-.073c.183-.731.365-1.487.548-2.267a503.648 503.648 0 0 0 2.433-11.932c.329-1.75.635-4.328.917-6.203A.983.983 0 0 1 72.782 0h5.996c.632 0 1.105.578.982 1.197-1.055 5.279-2.247 11.504-3.576 16.773a254.42 254.42 0 0 1-4.498 15.477.997.997 0 0 1-.948.686h-5.4a.996.996 0 0 1-.938-.657 188.437 188.437 0 0 1-2.957-8.898l-2.096-6.92c-.287-.946-1.629-.947-1.918 0a1220.44 1220.44 0 0 1-2.14 6.92 223.351 223.351 0 0 1-3.244 9.555h-6.011a223.404 223.404 0 0 1-3.243-9.555c-.721-2.307-1.434-4.614-2.14-6.92-.29-.946-1.632-.946-1.918 0l-2.096 6.92a187.837 187.837 0 0 1-2.958 8.899.996.996 0 0 1-.938.656h-4.087a.997.997 0 0 1-.938-.657 223.091 223.091 0 0 1-3.005-8.898 1220.44 1220.44 0 0 1-2.14-6.92c-.289-.947-1.631-.946-1.918 0l-2.096 6.92a188.998 188.998 0 0 1-2.957 8.899.996.996 0 0 1-.938.656h-5.4a.997.997 0 0 1-.949-.686c-1.6-4.899-3.1-10.058-4.497-15.477C2.487 12.7 1.296 6.476.24 1.197A1.001 1.001 0 0 1 1.222 0h5.996c.487 0 .904.351.976.833.282 1.875.588 4.452.917 6.203a503.648 503.648 0 0 0 2.433 11.932c.183.78.365 1.536.548 2.267a.939.939 0 0 0 1.814.073c.217-.654.432-1.323.644-2.007a326.48 326.48 0 0 0 1.574-5.23c.509-1.742.97-3.422 1.383-5.039l.99-3.592a1 1 0 0 1 .965-.734h4.834Z"/></svg>